<svg width="1152.149" height="97.998" viewBox="0 0 1152.149 97.998" xmlns="http://www.w3.org/2000/svg"><g id="svgGroup" stroke-linecap="round" fill-rule="evenodd" font-size="9pt" stroke="#ffffff" stroke-width="0.25mm" fill="#ffffff" style="stroke:#ffffff;stroke-width:0.25mm;fill:#ffffff"><path d="M 0 40.039 L 0 38.086 A 168.612 168.612 0 0 1 0.138 31.065 Q 0.366 25.589 0.977 21.362 Q 1.724 16.185 3.302 12.481 A 21.532 21.532 0 0 1 4.346 10.352 A 16.354 16.354 0 0 1 10.864 3.858 Q 14.99 1.611 21.24 0.806 A 87.086 87.086 0 0 1 26.285 0.315 Q 29.098 0.118 32.299 0.044 A 172.923 172.923 0 0 1 36.279 0 L 55.957 0 A 177.187 177.187 0 0 1 63.058 0.134 Q 68.607 0.357 72.925 0.952 Q 78.345 1.699 82.113 3.588 A 18.431 18.431 0 0 1 84.058 4.712 A 15.013 15.013 0 0 1 89.166 10.557 A 19.678 19.678 0 0 1 90.186 12.964 A 28.916 28.916 0 0 1 91.308 17.334 Q 92.09 21.637 92.09 27.393 L 82.715 27.393 Q 82.715 20.829 81.624 16.972 A 16.797 16.797 0 0 0 81.445 16.382 A 12.029 12.029 0 0 0 80.189 13.643 A 8.791 8.791 0 0 0 77.173 10.693 A 13.34 13.34 0 0 0 74.495 9.525 Q 72.148 8.774 68.994 8.521 A 111.464 111.464 0 0 0 64.927 8.276 Q 60.993 8.106 55.957 8.106 L 36.279 8.106 A 195.615 195.615 0 0 0 31.352 8.164 Q 29.427 8.213 27.717 8.302 A 93.647 93.647 0 0 0 24.512 8.521 A 31.11 31.11 0 0 0 21.303 8.958 Q 18.648 9.471 16.724 10.425 A 9.902 9.902 0 0 0 12.351 14.716 A 12.359 12.359 0 0 0 12.134 15.137 Q 11.024 17.392 10.403 20.794 A 42.032 42.032 0 0 0 9.961 23.926 A 90.276 90.276 0 0 0 9.628 28.111 Q 9.375 32.446 9.375 38.086 L 9.375 40.039 A 194.389 194.389 0 0 0 9.451 45.64 Q 9.586 50.305 9.961 53.809 A 40.31 40.31 0 0 0 10.482 57.309 Q 10.806 58.952 11.252 60.328 A 17.326 17.326 0 0 0 12.134 62.549 A 11.175 11.175 0 0 0 14.513 65.844 A 10.318 10.318 0 0 0 16.724 67.432 A 15.441 15.441 0 0 0 19.458 68.556 Q 20.841 68.984 22.469 69.258 A 31.737 31.737 0 0 0 24.512 69.531 Q 27.802 69.867 32.13 69.972 A 171.591 171.591 0 0 0 36.279 70.02 L 55.957 70.02 A 317.105 317.105 0 0 0 59.72 69.998 Q 64.754 69.938 68.472 69.711 A 107.888 107.888 0 0 0 68.994 69.678 A 30.024 30.024 0 0 0 72.227 69.299 Q 73.795 69.023 75.093 68.582 A 12.805 12.805 0 0 0 77.173 67.676 A 8.539 8.539 0 0 0 80.539 64.243 A 12.124 12.124 0 0 0 81.445 62.134 Q 82.715 58.252 82.715 51.221 L 92.09 51.221 A 69.857 69.857 0 0 1 91.904 56.483 Q 91.495 61.884 90.186 65.576 A 17.562 17.562 0 0 1 87.984 69.897 A 14.142 14.142 0 0 1 84.058 73.657 A 20.295 20.295 0 0 1 79.848 75.678 Q 77.784 76.408 75.328 76.87 A 40.946 40.946 0 0 1 72.925 77.246 A 96.611 96.611 0 0 1 67.3 77.782 Q 62.244 78.125 55.957 78.125 L 36.279 78.125 Q 25.293 78.125 18.213 76.636 Q 11.133 75.147 7.153 71.143 A 17.716 17.716 0 0 1 3.904 66.528 Q 2.882 64.484 2.17 61.985 A 35.066 35.066 0 0 1 1.587 59.619 Q 0.521 54.567 0.171 47.465 A 151.385 151.385 0 0 1 0 40.039 Z M 946.289 83.252 L 955.664 83.252 A 6.835 6.835 0 0 0 955.924 85.198 A 4.813 4.813 0 0 0 958.325 88.135 Q 960.735 89.461 965.327 89.827 A 40.265 40.265 0 0 0 966.309 89.893 Q 971.631 90.186 979.59 90.186 Q 985.498 90.186 989.697 89.819 A 19.407 19.407 0 0 0 992.631 89.349 Q 994.249 88.952 995.56 88.278 A 10.627 10.627 0 0 0 996.558 87.695 A 8.248 8.248 0 0 0 998.926 85.253 Q 999.612 84.193 1000.12 82.834 A 16.764 16.764 0 0 0 1000.464 81.812 Q 1001.589 78.085 1001.698 71.628 A 83.953 83.953 0 0 0 1001.709 70.215 L 1001.709 68.897 A 15.758 15.758 0 0 1 994.029 74.221 A 20.335 20.335 0 0 1 992.31 74.707 A 46.291 46.291 0 0 1 987.422 75.57 Q 984.736 75.907 981.636 76.039 A 97.803 97.803 0 0 1 977.49 76.123 Q 970.5 76.123 965.083 75.508 A 66.259 66.259 0 0 1 961.914 75.073 A 31.594 31.594 0 0 1 957.248 73.966 Q 954.733 73.151 952.724 71.943 A 17.592 17.592 0 0 1 951.441 71.094 Q 947.412 68.164 945.557 62.598 Q 944.224 58.6 943.849 52.839 A 73.819 73.819 0 0 1 943.701 48.047 A 81.495 81.495 0 0 1 943.883 42.437 Q 944.281 36.676 945.557 32.715 Q 947.412 26.953 951.441 24.048 A 19.179 19.179 0 0 1 955.991 21.661 Q 958.641 20.674 961.914 20.191 A 78.557 78.557 0 0 1 967.126 19.61 Q 970.037 19.378 973.358 19.291 A 157.629 157.629 0 0 1 977.49 19.238 Q 984.171 19.238 989.219 19.978 A 46.507 46.507 0 0 1 992.31 20.532 A 17.188 17.188 0 0 1 997.503 22.525 A 14.838 14.838 0 0 1 1001.709 26.27 L 1001.709 20.313 L 1011.084 20.313 L 1011.084 70.606 Q 1010.889 79.883 1008.74 85.376 A 21.187 21.187 0 0 1 1006.693 89.38 A 15.084 15.084 0 0 1 1002.612 93.579 A 20.438 20.438 0 0 1 997.407 96.092 A 27.826 27.826 0 0 1 992.847 97.144 Q 987.061 97.998 979.59 97.998 A 265.466 265.466 0 0 1 972.455 97.907 A 197.827 197.827 0 0 1 965.991 97.632 A 56.51 56.51 0 0 1 961.299 97.165 Q 958.934 96.824 956.898 96.288 A 30.341 30.341 0 0 1 955.469 95.874 A 16.529 16.529 0 0 1 952.117 94.413 A 12.192 12.192 0 0 1 948.682 91.48 Q 946.289 88.477 946.289 83.252 Z M 643.897 76.563 L 634.522 76.563 L 634.522 1.563 L 643.897 1.563 L 643.897 44.873 L 681.25 20.313 L 695.459 20.313 L 655.762 46.729 L 697.022 76.563 L 683.057 76.563 L 643.897 47.705 L 643.897 76.563 Z M 508.399 59.863 L 517.139 59.863 A 34.436 34.436 0 0 1 516.955 63.538 Q 516.754 65.411 516.331 66.968 A 14.047 14.047 0 0 1 515.259 69.776 A 11.283 11.283 0 0 1 509.522 75.049 A 22.635 22.635 0 0 1 506.046 76.198 Q 504.292 76.635 502.245 76.907 A 47.322 47.322 0 0 1 499.683 77.173 A 138.006 138.006 0 0 1 494.877 77.456 Q 490.607 77.637 485.449 77.637 A 156.484 156.484 0 0 1 478.783 77.503 Q 475.52 77.363 472.694 77.079 A 74.896 74.896 0 0 1 469.458 76.685 A 31.148 31.148 0 0 1 464.89 75.689 Q 462.422 74.941 460.445 73.806 A 16.894 16.894 0 0 1 458.862 72.778 A 14.683 14.683 0 0 1 454.779 68.1 A 21.135 21.135 0 0 1 453.003 63.916 Q 451.172 58.008 451.172 48.145 A 84.832 84.832 0 0 1 451.346 42.535 Q 451.535 39.699 451.927 37.3 A 33.575 33.575 0 0 1 452.954 32.813 A 20.233 20.233 0 0 1 454.764 28.608 A 14.5 14.5 0 0 1 458.74 24.121 Q 462.213 21.581 467.576 20.509 A 35.292 35.292 0 0 1 469.263 20.215 A 77.954 77.954 0 0 1 474.56 19.62 Q 479.315 19.238 485.205 19.238 A 127.092 127.092 0 0 1 492.482 19.434 Q 495.89 19.63 498.816 20.022 A 56.101 56.101 0 0 1 503.076 20.752 A 24.844 24.844 0 0 1 507.611 22.154 Q 510.205 23.258 512.085 24.904 A 13.697 13.697 0 0 1 513.648 26.514 A 13.687 13.687 0 0 1 516.03 30.976 Q 517.139 34.343 517.139 38.965 L 517.139 51.026 L 460.596 51.026 A 80.484 80.484 0 0 0 460.703 54.689 Q 460.898 58.329 461.438 60.867 A 23.257 23.257 0 0 0 461.475 61.035 A 11.994 11.994 0 0 0 462.331 63.594 A 8.314 8.314 0 0 0 464.795 66.699 A 9.841 9.841 0 0 0 467.003 67.943 Q 469.122 68.825 472.193 69.208 A 31.443 31.443 0 0 0 472.241 69.214 A 65.767 65.767 0 0 0 475.661 69.536 Q 479.776 69.824 485.449 69.824 Q 492.871 69.824 497.437 69.531 A 39.787 39.787 0 0 0 499.954 69.295 Q 502.362 68.985 503.938 68.408 A 9.586 9.586 0 0 0 504.37 68.237 A 7.052 7.052 0 0 0 505.93 67.346 A 5.088 5.088 0 0 0 507.569 65.235 Q 508.152 63.826 508.326 61.742 A 22.742 22.742 0 0 0 508.399 59.863 Z M 144.922 35.449 L 135.547 35.449 A 31.517 31.517 0 0 1 135.715 32.084 Q 136.039 29.074 136.987 26.953 A 9.57 9.57 0 0 1 141.161 22.452 A 12.332 12.332 0 0 1 141.895 22.07 A 18.258 18.258 0 0 1 144.581 21.056 Q 147.434 20.209 151.392 19.824 A 107.39 107.39 0 0 1 156.133 19.479 Q 158.427 19.359 161.044 19.299 A 242.621 242.621 0 0 1 166.602 19.238 A 126.976 126.976 0 0 1 172.392 19.362 Q 178.349 19.635 182.495 20.508 A 24.172 24.172 0 0 1 186.301 21.62 Q 188.368 22.427 189.95 23.574 A 12.634 12.634 0 0 1 191.675 25.073 A 14.435 14.435 0 0 1 194.361 29.131 Q 195.387 31.393 195.923 34.277 A 55.005 55.005 0 0 1 196.549 38.743 Q 197.022 43.392 197.022 49.512 L 197.022 76.563 L 187.647 76.563 L 187.647 72.705 Q 185.987 74.463 183.057 75.537 A 21.212 21.212 0 0 1 180.815 76.209 Q 178.457 76.788 175.269 77.124 Q 172.004 77.469 167.517 77.582 A 186.202 186.202 0 0 1 162.842 77.637 A 161.492 161.492 0 0 1 156.311 77.513 Q 150.477 77.276 146.167 76.587 A 23.669 23.669 0 0 1 142.22 75.627 Q 140.099 74.899 138.485 73.791 A 11.622 11.622 0 0 1 136.402 71.973 Q 133.203 68.408 133.203 60.889 A 31.15 31.15 0 0 1 133.441 56.899 Q 134.048 52.213 136.206 49.634 A 11.569 11.569 0 0 1 139.922 46.756 Q 142.354 45.527 145.728 44.971 A 65.836 65.836 0 0 1 150.2 44.404 Q 155.385 43.913 162.374 43.897 A 206.405 206.405 0 0 1 162.842 43.897 A 333.909 333.909 0 0 1 166.965 43.921 Q 172.842 43.994 177.178 44.283 A 118.235 118.235 0 0 1 177.246 44.287 A 87.603 87.603 0 0 1 182.589 44.803 Q 185.196 45.14 187.498 45.623 A 53.558 53.558 0 0 1 187.647 45.654 A 94.721 94.721 0 0 0 187.519 41.865 Q 187.305 37.993 186.768 35.425 Q 186.18 32.614 184.818 30.896 A 6.989 6.989 0 0 0 183.838 29.883 Q 181.69 28.076 177.564 27.564 A 54.36 54.36 0 0 0 174.72 27.293 Q 171.301 27.051 166.602 27.051 A 301.837 301.837 0 0 0 162.908 27.072 Q 157.685 27.136 154.37 27.393 Q 150.869 27.664 148.885 28.272 A 8.615 8.615 0 0 0 147.949 28.613 A 5.798 5.798 0 0 0 146.796 29.274 Q 145.779 30.037 145.435 31.152 A 9.954 9.954 0 0 0 145.125 32.519 Q 145.011 33.235 144.961 34.072 A 23.199 23.199 0 0 0 144.922 35.449 Z M 247.315 76.563 L 237.94 76.563 L 237.94 20.313 L 247.315 20.313 L 247.315 27.783 A 18.359 18.359 0 0 1 252.515 23.047 A 17.27 17.27 0 0 1 255.319 21.681 Q 256.762 21.122 258.488 20.691 A 37.415 37.415 0 0 1 260.816 20.191 A 48.738 48.738 0 0 1 264.774 19.648 Q 266.847 19.443 269.269 19.341 A 123.226 123.226 0 0 1 274.463 19.238 A 92.42 92.42 0 0 1 280.905 19.448 Q 287.489 19.91 291.87 21.387 A 16.89 16.89 0 0 1 296.703 23.883 A 14.131 14.131 0 0 1 300.928 29.053 Q 303.502 34.341 303.609 43.844 A 73.947 73.947 0 0 1 303.613 44.678 L 303.613 76.563 L 294.19 76.563 L 294.19 44.678 Q 294.19 40.912 293.772 38.106 A 22.511 22.511 0 0 0 293.213 35.401 A 12.197 12.197 0 0 0 292.238 32.915 A 8.598 8.598 0 0 0 289.868 30.078 Q 287.958 28.621 284.888 27.942 A 21.849 21.849 0 0 0 283.35 27.661 A 49.187 49.187 0 0 0 280.077 27.301 Q 278.489 27.176 276.67 27.114 A 112.653 112.653 0 0 0 272.803 27.051 A 96.088 96.088 0 0 0 267.109 27.208 Q 261.809 27.524 258.159 28.473 A 26.154 26.154 0 0 0 257.471 28.662 Q 251.904 30.274 249.61 33.716 Q 247.601 36.728 247.35 41.329 A 24.732 24.732 0 0 0 247.315 42.676 L 247.315 76.563 Z M 1104.932 56.25 L 1104.932 4.932 L 1114.307 4.932 L 1114.307 20.313 L 1148.926 20.313 L 1148.926 28.027 L 1114.307 28.027 L 1114.307 56.25 A 47.819 47.819 0 0 0 1114.386 59.106 Q 1114.588 62.474 1115.308 64.404 A 5.399 5.399 0 0 0 1118.532 67.646 A 7.791 7.791 0 0 0 1119.361 67.92 A 17.669 17.669 0 0 0 1121.319 68.321 Q 1124.129 68.75 1128.516 68.75 Q 1133.412 68.75 1136.415 68.471 A 36.341 36.341 0 0 0 1137.036 68.408 Q 1140.137 68.067 1141.602 66.577 Q 1143.009 65.146 1143.425 61.934 A 17.846 17.846 0 0 0 1143.457 61.67 A 44.555 44.555 0 0 0 1143.628 59.787 Q 1143.779 57.666 1143.826 54.805 A 167.316 167.316 0 0 0 1143.848 52.051 L 1152.149 52.051 A 108.257 108.257 0 0 1 1152.051 56.802 Q 1151.836 61.682 1151.148 65.039 A 20.046 20.046 0 0 1 1150.275 68.113 Q 1149.676 69.696 1148.839 70.914 A 9.851 9.851 0 0 1 1147.583 72.412 A 11.044 11.044 0 0 1 1144.394 74.539 Q 1142.64 75.33 1140.405 75.733 A 44.335 44.335 0 0 1 1136.919 76.205 Q 1135.104 76.384 1133.004 76.473 A 105.892 105.892 0 0 1 1128.516 76.563 A 70.359 70.359 0 0 1 1123.478 76.393 Q 1120.912 76.209 1118.743 75.822 A 28.172 28.172 0 0 1 1114.746 74.829 A 14.162 14.162 0 0 1 1110.673 72.73 A 11.992 11.992 0 0 1 1107.251 68.677 Q 1104.955 64.302 1104.932 56.41 A 54.922 54.922 0 0 1 1104.932 56.25 Z M 811.67 76.563 L 802.295 76.563 L 802.295 45.313 L 760.108 1.563 L 772.608 1.563 L 806.983 38.281 L 841.358 1.563 L 853.858 1.563 L 811.67 45.313 L 811.67 76.563 Z M 353.906 70.117 L 353.906 76.563 L 344.531 76.563 L 344.531 1.563 L 353.906 1.563 L 353.906 26.709 A 15.917 15.917 0 0 1 362.74 20.84 A 20.344 20.344 0 0 1 363.696 20.606 A 51.855 51.855 0 0 1 368.76 19.772 Q 373.31 19.238 378.955 19.238 A 153.828 153.828 0 0 1 385.651 19.376 Q 388.905 19.518 391.722 19.807 A 73.013 73.013 0 0 1 394.995 20.215 A 31.841 31.841 0 0 1 399.567 21.222 Q 403.082 22.29 405.615 24.121 A 14.92 14.92 0 0 1 409.906 29.037 A 20.869 20.869 0 0 1 411.524 32.813 A 32.328 32.328 0 0 1 412.58 37.224 Q 412.98 39.544 413.179 42.274 A 80.695 80.695 0 0 1 413.379 48.145 A 86.419 86.419 0 0 1 413.198 53.923 Q 412.802 59.806 411.544 63.851 A 26.113 26.113 0 0 1 411.524 63.916 A 21.177 21.177 0 0 1 409.739 68.081 A 14.771 14.771 0 0 1 405.615 72.778 Q 402.085 75.352 396.647 76.406 A 35.274 35.274 0 0 1 394.995 76.685 A 81.106 81.106 0 0 1 389.661 77.265 Q 386.708 77.494 383.322 77.582 A 168.473 168.473 0 0 1 378.955 77.637 A 99.759 99.759 0 0 1 372.575 77.445 Q 369.458 77.244 366.769 76.835 A 47.932 47.932 0 0 1 363.696 76.27 A 17.279 17.279 0 0 1 357.984 73.951 A 15.602 15.602 0 0 1 353.906 70.117 Z M 568.018 76.563 L 558.643 76.563 L 558.643 20.313 L 568.018 20.313 L 568.018 28.076 A 32.003 32.003 0 0 1 569.39 26.056 Q 570.275 24.86 571.167 23.926 A 9.961 9.961 0 0 1 573.396 22.195 A 13.23 13.23 0 0 1 575.318 21.289 Q 577.881 20.313 582.276 19.898 A 76.075 76.075 0 0 1 585.294 19.679 Q 588.797 19.489 593.531 19.483 A 245.238 245.238 0 0 1 593.848 19.483 L 593.848 27.344 Q 584.18 27.344 578.882 28.027 Q 574.411 28.604 572.079 29.859 A 7.403 7.403 0 0 0 571.289 30.347 A 6.681 6.681 0 0 0 568.522 34.774 A 8.518 8.518 0 0 0 568.506 34.863 A 29.795 29.795 0 0 0 568.218 37.136 Q 568.118 38.238 568.068 39.501 A 67.943 67.943 0 0 0 568.018 42.188 L 568.018 76.563 Z M 403.359 37.352 A 32.583 32.583 0 0 0 403.296 36.963 Q 402.748 33.711 401.189 31.704 A 7.882 7.882 0 0 0 400.195 30.64 Q 397.803 28.516 392.749 27.783 A 56.631 56.631 0 0 0 389.231 27.397 Q 385.564 27.1 380.611 27.058 A 196.082 196.082 0 0 0 378.955 27.051 Q 371.083 27.051 366.173 27.767 A 42.916 42.916 0 0 0 366.065 27.783 A 23.614 23.614 0 0 0 363.075 28.414 Q 360.268 29.213 358.496 30.64 A 9.42 9.42 0 0 0 356.009 33.776 Q 355.386 35.007 354.991 36.524 A 17.282 17.282 0 0 0 354.883 36.963 Q 353.95 40.976 353.908 47.531 A 97.221 97.221 0 0 0 353.906 48.145 Q 353.906 55.371 354.883 59.717 A 15.392 15.392 0 0 0 355.799 62.56 Q 356.807 64.843 358.496 66.235 Q 361.133 68.408 366.065 69.116 A 56.974 56.974 0 0 0 369.443 69.49 Q 373.355 69.814 378.609 69.824 A 176.666 176.666 0 0 0 378.955 69.824 Q 387.062 69.824 391.997 69.215 A 46.284 46.284 0 0 0 392.749 69.116 A 22.935 22.935 0 0 0 395.582 68.549 Q 398.532 67.746 400.195 66.235 A 8.61 8.61 0 0 0 402.167 63.519 Q 402.724 62.348 403.064 60.896 A 17.622 17.622 0 0 0 403.296 59.717 A 44.049 44.049 0 0 0 403.669 56.72 Q 403.982 53.352 404.003 48.798 A 143.54 143.54 0 0 0 404.004 48.145 Q 404.004 41.481 403.359 37.352 Z M 1001.709 48.047 A 93.893 93.893 0 0 0 1001.626 43.957 Q 1001.454 40.039 1000.931 37.277 A 27.029 27.029 0 0 0 1000.855 36.89 A 14.83 14.83 0 0 0 1000.034 34.157 Q 999.377 32.581 998.382 31.436 A 8.288 8.288 0 0 0 997.534 30.591 A 9.887 9.887 0 0 0 995.144 29.099 Q 994.003 28.582 992.6 28.222 A 22.87 22.87 0 0 0 990.259 27.759 A 53.806 53.806 0 0 0 986.945 27.386 Q 983.227 27.073 978.211 27.052 A 174.145 174.145 0 0 0 977.49 27.051 Q 969.701 27.051 964.915 27.66 A 44.085 44.085 0 0 0 964.185 27.759 A 22.44 22.44 0 0 0 961.371 28.337 Q 959.996 28.721 958.901 29.261 A 9.043 9.043 0 0 0 956.885 30.591 A 8.574 8.574 0 0 0 954.818 33.427 Q 954.27 34.603 953.947 36.055 A 16.805 16.805 0 0 0 953.784 36.89 A 40.659 40.659 0 0 0 953.411 39.773 Q 953.099 43.016 953.078 47.415 A 133.973 133.973 0 0 0 953.076 48.047 A 93.46 93.46 0 0 0 953.16 52.134 Q 953.32 55.771 953.784 58.399 Q 954.492 62.402 956.861 64.551 A 9.34 9.34 0 0 0 959.089 66.018 Q 960.181 66.546 961.544 66.933 A 23.472 23.472 0 0 0 964.16 67.505 A 49.495 49.495 0 0 0 967.581 67.93 Q 971.442 68.285 976.731 68.309 A 170.195 170.195 0 0 0 977.49 68.311 A 129.775 129.775 0 0 0 982.157 68.232 Q 986.952 68.059 990.259 67.505 Q 995.069 66.699 997.534 64.551 A 9.472 9.472 0 0 0 999.894 61.347 Q 1000.507 60.026 1000.855 58.399 A 32.743 32.743 0 0 0 1001.341 55.369 Q 1001.709 52.213 1001.709 48.047 Z M 904.151 76.563 L 894.776 76.563 L 894.776 23.438 L 904.151 23.438 L 904.151 76.563 Z M 1061.572 76.563 L 1052.197 76.563 L 1052.197 23.438 L 1061.572 23.438 L 1061.572 76.563 Z M 460.596 43.652 L 508.154 43.652 L 508.154 38.965 Q 508.154 36.318 507.698 34.35 A 11.936 11.936 0 0 0 507.349 33.13 A 6.524 6.524 0 0 0 504.795 29.842 A 8.521 8.521 0 0 0 504.199 29.468 Q 501.986 28.2 497.793 27.65 A 38.368 38.368 0 0 0 497.29 27.588 Q 492.933 27.075 485.886 27.052 A 204.913 204.913 0 0 0 485.205 27.051 A 178.951 178.951 0 0 0 480.534 27.108 Q 475.883 27.23 472.605 27.611 A 51.294 51.294 0 0 0 472.388 27.637 A 28.288 28.288 0 0 0 469.578 28.11 Q 466.736 28.749 464.99 29.907 A 8.034 8.034 0 0 0 461.963 33.678 A 10.741 10.741 0 0 0 461.548 34.912 A 22.402 22.402 0 0 0 461.028 37.443 Q 460.628 40.096 460.596 43.652 Z M 187.647 60.449 L 187.647 51.807 L 162.842 51.514 Q 157.761 51.439 154.203 51.581 A 74.856 74.856 0 0 0 152.222 51.685 A 34.525 34.525 0 0 0 150 51.9 Q 147.871 52.182 146.474 52.704 A 8.469 8.469 0 0 0 146.094 52.857 A 5.696 5.696 0 0 0 144.618 53.76 A 4.585 4.585 0 0 0 143.286 55.689 Q 142.579 57.615 142.578 60.88 A 29.284 29.284 0 0 0 142.578 60.889 Q 142.578 62.938 142.873 64.437 A 9.079 9.079 0 0 0 143.286 65.918 A 4.559 4.559 0 0 0 145.298 68.255 A 6.414 6.414 0 0 0 146.094 68.652 Q 148.194 69.531 152.222 69.776 A 102.443 102.443 0 0 0 154.396 69.882 Q 157.406 70 161.48 70.017 A 334.485 334.485 0 0 0 162.842 70.02 Q 169.235 70.02 173.652 69.905 A 190.516 190.516 0 0 0 176.172 69.824 Q 180.314 69.662 182.716 69.027 A 11.271 11.271 0 0 0 183.618 68.75 Q 186.084 67.871 186.865 65.918 A 8.99 8.99 0 0 0 187.306 64.41 Q 187.647 62.77 187.647 60.449 Z M 904.151 10.938 L 894.776 10.938 L 894.776 1.563 L 904.151 1.563 L 904.151 10.938 Z M 1061.572 10.938 L 1052.197 10.938 L 1052.197 1.563 L 1061.572 1.563 L 1061.572 10.938 Z" vector-effect="non-scaling-stroke"/></g></svg>